<svg width="30" height="25" viewBox="0 0 30 25" fill="none" xmlns="http://www.w3.org/2000/svg">
<path d="M12.1512 0.189268C9.11679 0.657674 5.83795 2.15114 3.76746 4.41849C2.90532 5.36209 2.37582 6.55008 1.86669 7.72448C0.787318 10.1955 -0.25132 12.8294 0.0541615 15.5109C0.46147 19.0816 3.29906 22.0414 6.60505 23.4398C9.91104 24.8383 13.6311 24.9129 17.2154 24.6007C18.7361 24.4649 20.2635 24.2612 21.6958 23.7249C23.1554 23.1683 24.4723 22.2722 25.6603 21.2539C26.7125 20.3511 27.6901 19.3396 28.43 18.172C31.0707 14.0174 30.2561 8.14537 26.9162 4.52711C23.5763 0.908848 17.0186 -0.557465 12.1512 0.189268Z" fill="#A4D879"/>
<path d="M8.47189 11.5668C9.78207 11.5668 9.78207 9.53027 8.47189 9.53027C7.16171 9.53027 7.16171 11.5668 8.47189 11.5668Z" fill="black"/>
<path d="M21.0781 11.302C22.3883 11.302 22.3883 9.2655 21.0781 9.2655C19.7679 9.2655 19.7679 11.302 21.0781 11.302Z" fill="black"/>
<path d="M12.3345 15.2461C13.9026 16.5359 16.3872 16.4341 17.7788 14.9203C18.2201 14.4383 17.5073 13.7187 17.0593 14.2007C16.0613 15.2868 14.2013 15.4701 13.054 14.5265C12.8436 14.35 12.5449 14.3161 12.3345 14.5265C12.158 14.703 12.124 15.0696 12.3345 15.2461Z" fill="black"/>
</svg>
