<svg width="30" height="25" viewBox="0 0 30 25" fill="none" xmlns="http://www.w3.org/2000/svg">
<path d="M7.2144 1.42658C6.39676 1.76726 5.6132 2.19652 4.89095 2.74842C-0.157941 6.57087 -2.04532 16.4438 2.85368 21.261C5.12261 23.4891 8.37953 23.9729 11.432 24.2795C14.907 24.627 18.4364 24.8654 21.8637 24.15C23.7443 23.7548 25.6248 23.0394 27.0489 21.6562C28.4252 20.3208 29.2769 18.4402 29.6925 16.4915C30.2376 13.916 30.0537 11.1632 29.1747 8.69672C27.9619 5.31716 25.4068 2.52357 22.2998 1.16085C19.3086 -0.147366 15.9699 -0.147366 12.7607 0.186502C10.8801 0.384097 8.9655 0.704337 7.2144 1.43339V1.42658Z" fill="#F1937D"/>
<path d="M6.83947 11.3473C7.74568 12.3217 8.8086 13.1598 9.96692 13.8207C10.1986 13.9502 10.5393 13.882 10.6687 13.6367C10.7982 13.3914 10.7369 13.078 10.4848 12.9349C10.2054 12.7782 9.93966 12.6079 9.67393 12.4307C9.54447 12.3421 9.41501 12.2536 9.28555 12.1582C9.22423 12.1105 9.1561 12.0628 9.09477 12.0151C9.08796 12.0151 9.01301 11.9538 9.04026 11.9742C9.06752 11.9946 8.96531 11.9129 8.96531 11.9129C8.46792 11.5177 7.99778 11.0816 7.56852 10.6183C7.38455 10.4207 7.03024 10.4207 6.84627 10.6183C6.65549 10.8295 6.64868 11.1293 6.84627 11.3405L6.83947 11.3473Z" fill="black"/>
<path d="M9.0336 9.89585C8.74062 10.4818 8.38631 11.0474 7.98431 11.5652C8.01837 11.5243 7.97749 11.572 7.96387 11.5856C7.93661 11.6197 7.90936 11.6538 7.88211 11.6878C7.83441 11.7492 7.7799 11.8105 7.72539 11.8718C7.62319 11.9944 7.51417 12.1103 7.40515 12.2329C7.17349 12.4782 6.9282 12.7167 6.67609 12.9415C6.47168 13.1187 6.4785 13.4866 6.67609 13.6638C6.88731 13.8614 7.18712 13.8546 7.39834 13.6638C8.43401 12.7508 9.29252 11.6401 9.91256 10.4069C10.0352 10.1684 9.9807 9.84134 9.7286 9.70507C9.49693 9.58242 9.15625 9.63693 9.02679 9.88904L9.0336 9.89585Z" fill="black"/>
<path d="M19.3085 10.2502C20.0853 11.2586 20.9983 12.1307 22.0544 12.8394C22.2792 12.9893 22.6335 12.8871 22.7562 12.6554C22.8925 12.3965 22.8107 12.1171 22.5722 11.9536C22.4496 11.8718 22.3269 11.7901 22.2111 11.7015C22.1566 11.6606 22.1021 11.6197 22.0544 11.5857C22.0203 11.5584 21.9794 11.5243 22.034 11.572C22.0067 11.5516 21.9794 11.5243 21.9454 11.5039C21.7205 11.3267 21.5025 11.136 21.2913 10.9384C21.08 10.7408 20.8893 10.55 20.7053 10.3388C20.6031 10.2297 20.5077 10.1207 20.4123 10.0049C20.3714 9.9572 20.3305 9.90269 20.2828 9.84818C20.2624 9.82092 20.2351 9.79367 20.2147 9.7596C20.2011 9.73916 20.1193 9.63696 20.1875 9.72553C20.1057 9.61651 20.0239 9.52794 19.8808 9.49387C19.7582 9.4598 19.5947 9.47343 19.4857 9.54838C19.2744 9.68465 19.1313 10.0185 19.3017 10.2502H19.3085Z" fill="black"/>
<path d="M21.8368 9.37812C20.9647 10.4274 20.0925 11.4835 19.2204 12.5328C19.0501 12.7372 19.0024 13.0575 19.2204 13.2551C19.4112 13.4254 19.7587 13.4731 19.9426 13.2551C20.8148 12.2058 21.6869 11.1497 22.5591 10.1004C22.7294 9.89595 22.7771 9.57571 22.5591 9.37812C22.3683 9.20778 22.0208 9.16008 21.8368 9.37812Z" fill="black"/>
<path d="M13.4832 17.9906C13.4627 17.868 13.5036 17.7113 13.5717 17.5818C13.6535 17.4251 13.7761 17.2956 13.926 17.2003C14.3212 16.9482 14.8254 16.9482 15.2751 17.0027C15.6635 17.0504 16.0315 17.1594 16.3517 17.357C16.5084 17.4524 16.6174 17.5341 16.7401 17.684C16.8218 17.7862 16.8832 17.9225 16.9172 18.0928C16.9717 18.3654 17.292 18.5221 17.5441 18.4472C17.8234 18.3722 17.9597 18.0928 17.8984 17.8203C17.6463 16.5802 16.2699 16.0624 15.1457 15.967C14.4439 15.9057 13.7216 16.0419 13.1697 16.4916C12.6178 16.9413 12.3794 17.5818 12.502 18.2564C12.5497 18.5289 12.8836 18.6788 13.1288 18.6107C13.415 18.5289 13.5309 18.2564 13.4832 17.9838V17.9906Z" fill="black"/>
</svg>
