<svg width="30" height="26" viewBox="0 0 30 26" fill="none" xmlns="http://www.w3.org/2000/svg">
<path d="M6.732 2.15522C6.50571 2.29237 6.27942 2.44323 6.05313 2.59409C1.29411 5.91306 -2.45688 14.6014 1.97984 19.9981C3.69419 22.0828 6.11484 23.2348 8.53549 24.0028C12.1219 25.1411 15.8797 25.5732 19.5964 25.2646C21.8731 25.0794 24.1977 24.5857 26.1041 23.1594C30.2597 20.0461 31.0894 12.9419 28.6002 8.05257C26.1109 3.16326 21.0639 0.454594 16.0992 0.0568667C12.8831 -0.203714 9.5641 0.420307 6.73886 2.15522H6.732Z" fill="#FFD400"/>
<path d="M9.68072 11.5567C11.0042 11.5567 11.0042 9.49951 9.68072 9.49951C8.35724 9.49951 8.35724 11.5567 9.68072 11.5567Z" fill="black"/>
<path d="M20.4605 11.1452C21.784 11.1452 21.784 9.08801 20.4605 9.08801C19.137 9.08801 19.137 11.1452 20.4605 11.1452Z" fill="black"/>
<path d="M14.1791 18.2837C15.6328 18.0232 17.0935 17.8586 18.5678 17.7832C18.8421 17.7694 19.0821 17.5569 19.0821 17.2688C19.0821 17.0014 18.8489 16.7408 18.5678 16.7545C17.0043 16.8368 15.4477 17.022 13.9048 17.2963C13.6305 17.3443 13.4796 17.6803 13.5482 17.9272C13.6305 18.2152 13.9048 18.3317 14.1791 18.2837Z" fill="black"/>
<path d="M8.91947 12.3315C8.33659 13.4973 7.77428 15.0951 7.75371 16.3911C7.74685 16.9054 7.80171 17.4677 8.15144 17.8517C8.65889 18.4003 9.70806 18.2426 10.0304 17.5706C10.1401 17.3374 10.1744 17.0768 10.1812 16.8231C10.2567 15.3488 9.79721 13.5179 8.91947 12.3315Z" fill="#8FB7FF"/>
<path d="M8.47385 12.071C7.99383 13.0379 7.5961 14.0665 7.39038 15.1225C7.19837 16.1031 7.0338 17.4198 7.78811 18.2152C8.41213 18.8804 9.57788 18.8324 10.2088 18.1946C10.9219 17.4678 10.7436 16.1443 10.5996 15.2323C10.4282 14.1214 10.0373 12.9899 9.37216 12.071C9.20758 11.8447 8.92643 11.735 8.66585 11.8859C8.44641 12.0161 8.31613 12.3659 8.4807 12.5922C8.94701 13.2368 9.25558 13.9636 9.44759 14.7317C9.6396 15.4997 9.77675 16.3157 9.64646 17.07C9.59845 17.3718 9.46131 17.5569 9.18015 17.6392C8.97443 17.7009 8.72757 17.6803 8.56299 17.5363C8.30241 17.31 8.27498 16.8917 8.27498 16.5694C8.27498 16.158 8.31613 15.7534 8.39841 15.3557C8.59728 14.3957 8.94014 13.4699 9.37216 12.5922C9.66703 12.0024 8.78243 11.4813 8.4807 12.071H8.47385Z" fill="#8FB7FF"/>
</svg>
