<svg width="20" height="23" viewBox="0 0 20 23" fill="none" xmlns="http://www.w3.org/2000/svg">
<path d="M7.10953 0.883431C4.77425 2.20704 3.48436 4.88798 4.00706 7.52676C4.56348 10.3257 7.25285 12.1046 9.98437 12.2142C12.5641 12.3238 14.7645 10.7641 15.6835 8.40355C16.5434 6.21158 16.1556 3.38733 14.5453 1.63376C12.64 -0.440177 9.42795 -0.364301 7.1011 0.883431C6.50253 1.20379 6.30862 2.03843 6.64584 2.61171C6.99993 3.21871 7.77555 3.38733 8.37413 3.06696C8.47529 3.01638 8.56803 2.96579 8.6692 2.91521C8.98113 2.7466 8.44156 2.99109 8.77036 2.86463C8.98112 2.78875 9.18346 2.71288 9.40266 2.66229C9.62185 2.61171 9.83262 2.56113 10.0434 2.5274C9.78204 2.56956 9.97594 2.53583 10.035 2.5274C10.1783 2.5274 10.3216 2.51054 10.4649 2.50211C10.6757 2.50211 10.8949 2.51054 11.1056 2.53583C10.7937 2.50211 11.1394 2.54426 11.19 2.56113C11.2911 2.58642 11.3923 2.61171 11.4935 2.637C11.5778 2.66229 12.0414 2.84777 11.7801 2.72131C11.9993 2.82247 12.2101 2.94893 12.4124 3.08382C12.6906 3.26087 12.2522 2.91521 12.4883 3.15127C12.5641 3.22714 12.6484 3.29459 12.7159 3.3789C12.7412 3.40419 12.9688 3.67397 12.8002 3.4632C12.8676 3.55594 12.9351 3.64868 12.9941 3.74141C13.0953 3.91002 13.1964 4.08707 13.2723 4.26411C13.1796 4.04491 13.3145 4.39057 13.3145 4.399C13.365 4.54232 13.4072 4.68564 13.4409 4.82896C13.4662 4.93856 13.4915 5.04816 13.5168 5.15776C13.5168 5.19991 13.5758 5.56243 13.5421 5.25892C13.5674 5.4444 13.5758 5.62144 13.5843 5.80691C13.5843 6.02611 13.5842 6.24531 13.5674 6.45607C13.5674 6.50666 13.5084 6.86074 13.5674 6.54881C13.5421 6.69213 13.5168 6.82702 13.4831 6.97034C13.4409 7.16425 13.3819 7.34972 13.3229 7.53519C13.2976 7.6195 13.2639 7.7038 13.2302 7.77968C13.3482 7.50147 13.2049 7.82183 13.1796 7.86399C13.0868 8.04946 12.9772 8.2265 12.8592 8.40355C12.8339 8.4457 12.6147 8.69862 12.8086 8.47942C12.7159 8.58059 12.6232 8.69019 12.5304 8.79136C12.4798 8.84194 12.092 9.17073 12.3112 9.00212C12.1426 9.12858 11.9571 9.24661 11.7717 9.34778C11.6789 9.39836 11.5778 9.44894 11.4766 9.4911C11.7379 9.3815 11.3923 9.50796 11.3586 9.52482C11.1394 9.59226 10.9117 9.65128 10.6841 9.685C10.9539 9.64285 10.5661 9.685 10.5408 9.69343C10.4143 9.69343 10.2963 9.70186 10.1698 9.70186C10.0434 9.70186 9.92536 9.70186 9.7989 9.685C9.78204 9.685 9.37737 9.62599 9.63872 9.66814C9.3858 9.62599 9.14131 9.56697 8.90525 9.4911C8.82095 9.4658 8.74507 9.44051 8.66076 9.41522C8.58489 9.38993 8.50058 9.35621 8.42471 9.32248C8.53431 9.36464 8.51744 9.35621 8.38255 9.29719C7.85985 9.01055 7.66595 8.91781 7.31187 8.56373C7.22756 8.47942 7.14325 8.38669 7.05894 8.29395C7.17697 8.43727 7.05051 8.28552 7.03365 8.26023C6.96621 8.15906 6.89876 8.04946 6.83132 7.93986C6.80603 7.89771 6.59526 7.47618 6.688 7.67851C6.56997 7.41716 6.51939 7.13895 6.44351 6.86917C6.35077 6.51509 6.44351 7.0968 6.41822 6.73428C6.41822 6.61625 6.40136 6.49823 6.40136 6.3802C6.40136 6.26217 6.40136 6.14414 6.40979 6.02611C6.40979 5.95024 6.41822 5.86593 6.42665 5.79005C6.40979 5.93337 6.40979 5.92494 6.42665 5.78162C6.49409 5.51184 6.56154 5.25049 6.64584 4.98914C6.76387 4.64349 6.52782 5.18305 6.70486 4.85425C6.7723 4.73623 6.83132 4.60977 6.89877 4.49174C6.94935 4.40743 6.99993 4.32313 7.05894 4.23882C7.1011 4.17137 7.15168 4.11236 7.19384 4.04491C7.11796 4.14608 7.12639 4.13765 7.21913 4.01962C7.41303 3.80886 7.60694 3.61495 7.8177 3.42948C8.09591 3.18499 7.63223 3.53065 7.95259 3.33674C8.09591 3.25244 8.2308 3.1597 8.37413 3.07539C8.96427 2.73817 9.1666 1.92883 8.82937 1.34712C8.49215 0.765402 7.69967 0.554637 7.1011 0.891862L7.10953 0.883431Z" fill="#ACACAC"/>
<path d="M20 20.9909C19.9831 18.428 19.5026 15.9409 17.2853 14.3728C15.2283 12.9228 12.3703 12.6024 9.91695 12.6361C7.46364 12.6698 4.70683 13.0324 2.69191 14.4656C0.424074 16.0842 -0.0396056 18.5797 0.00254749 21.2101C0.0278394 22.8372 2.55703 22.8372 2.53173 21.2101C2.49801 19.3975 2.59918 17.4922 4.29373 16.4299C5.98829 15.3676 8.05379 15.1906 9.90853 15.1653C11.7633 15.14 13.8288 15.3002 15.4474 16.2107C17.26 17.2308 17.4539 19.094 17.4708 20.9993C17.4792 22.6264 20.0084 22.6264 20 20.9993V20.9909Z" fill="#ACACAC"/>
</svg>
