<svg width="24" height="23" viewBox="0 0 24 23" fill="none" xmlns="http://www.w3.org/2000/svg">
<path d="M11.9226 0.00935764C10.0899 0.212985 8.72158 1.80128 7.41022 2.99046C5.91152 4.35069 4.4617 5.75979 3.07703 7.2259C2.40099 7.93452 1.74124 8.65944 1.09778 9.39249C0.568346 9.99523 -0.107696 10.598 0.0144805 11.4695C0.250688 13.1555 3.37026 13.294 4.64089 13.4569L3.41913 12.2351C3.64719 15.0045 3.77751 17.7819 3.82638 20.5594C3.83452 21.0725 4.20105 21.6264 4.72234 21.7404C7.14143 22.2536 9.64197 22.0418 12.0855 22.0418C14.529 22.0418 16.9155 22.2373 19.2776 21.7404C19.807 21.6264 20.1654 21.0725 20.1736 20.5594C20.2224 17.7819 20.3609 15.0045 20.5808 12.2351L19.3591 13.4569C20.6378 13.2858 23.7493 13.1637 23.9855 11.4695C24.1158 10.5491 23.342 9.8812 22.78 9.25403C22.0877 8.4721 21.3872 7.70646 20.6623 6.95711C19.2613 5.49914 17.8115 4.09004 16.3046 2.73796C15.091 1.63023 13.7064 0.00935764 11.9226 0.00935764C10.3506 0.00935764 10.3506 2.45288 11.9226 2.45288C12.7371 2.45288 13.7471 3.70723 14.3254 4.22037C15.1969 4.99415 16.0521 5.78422 16.8829 6.59873C17.7137 7.41324 18.5364 8.23589 19.3346 9.08298C19.7582 9.53096 20.1736 9.97894 20.5808 10.4351C20.7437 10.6143 20.9066 10.8016 21.0695 10.9808C21.151 11.0704 21.6397 11.836 21.5745 11.3066L21.9329 10.4432C21.8026 10.598 21.0125 10.6957 20.8089 10.7446C20.3365 10.8586 19.8559 10.9563 19.3672 11.0134C18.6667 11.103 18.2025 11.5021 18.1454 12.2351C17.9174 15.0045 17.7871 17.7819 17.7382 20.5594L18.6341 19.3784C16.5001 19.8263 14.2521 19.5983 12.0855 19.5983C9.9189 19.5983 7.55683 19.8426 5.37395 19.3784L6.2699 20.5594C6.22103 17.7819 6.08257 15.0045 5.86265 12.2351C5.80564 11.5102 5.34137 11.103 4.64089 11.0134C4.16033 10.9482 3.67162 10.8586 3.19921 10.7446C2.99558 10.6957 2.19736 10.598 2.07519 10.4432L2.43357 11.3066C2.37655 11.779 2.68607 11.2659 2.82453 11.1193C2.98744 10.9319 3.15034 10.7527 3.31324 10.5735C3.67977 10.1663 4.05444 9.75902 4.42912 9.35177C5.22733 8.50468 6.04184 7.66574 6.87264 6.85123C7.66271 6.07744 8.46093 5.3281 9.28359 4.58689C9.69084 4.22037 10.1062 3.85384 10.5216 3.49545C10.8882 3.17779 11.4257 2.5099 11.9307 2.45288C13.4783 2.28184 13.4946 -0.169834 11.9307 0.00935764H11.9226Z" fill="#ACACAC"/>
<path d="M16.549 20.7554C16.5327 19.0775 16.549 17.3915 16.492 15.7136C16.435 14.0357 15.8892 12.4719 14.415 11.5433C13.2014 10.7858 11.442 10.7207 10.1388 11.2745C8.53423 11.9587 7.74416 13.433 7.56497 15.1109C7.46722 15.9905 7.50795 16.8865 7.4998 17.7662L7.46722 20.7554C7.46722 21.4152 8.03738 21.9772 8.68899 21.9772C9.34059 21.9772 9.9026 21.4152 9.91075 20.7554C9.92704 19.3056 9.94333 17.8476 9.95147 16.3978C9.95147 15.7869 9.95147 15.233 10.0981 14.6955C10.1714 14.443 10.2528 14.2638 10.3995 14.0357C10.4809 13.9217 10.3995 14.0357 10.3832 14.052C10.4239 14.0031 10.4646 13.9624 10.5053 13.9217C10.5461 13.881 10.7986 13.661 10.6764 13.7588C10.7741 13.6855 10.8882 13.6285 10.994 13.5633C11.1569 13.4656 10.9859 13.5389 11.1651 13.4819C11.5072 13.376 11.4665 13.3841 11.7841 13.3841C12.0285 13.3841 12.281 13.3678 12.5253 13.3923C12.3624 13.376 12.6638 13.433 12.7127 13.4411C12.7778 13.4574 12.8348 13.4819 12.8918 13.4981C13.0792 13.5715 12.7697 13.433 12.9489 13.5307C13.0629 13.5877 13.1688 13.6529 13.2747 13.7262C13.3887 13.8077 13.291 13.7425 13.2747 13.7262C13.3235 13.7669 13.3643 13.8077 13.4131 13.8484C13.462 13.8891 13.6412 14.0846 13.6005 14.0357C13.5272 13.9461 13.6412 14.0927 13.6412 14.1009C13.6819 14.166 13.7226 14.2312 13.7552 14.2964C14.0159 14.7932 14.0322 15.3064 14.0485 15.8765C14.0892 17.5055 14.081 19.1427 14.0973 20.7717C14.0973 21.4315 14.6512 21.9935 15.3191 21.9935C15.987 21.9935 16.549 21.4315 16.5408 20.7717L16.549 20.7554Z" fill="#ACACAC"/>
</svg>
