<svg width="18" height="25" viewBox="0 0 18 25" fill="none" xmlns="http://www.w3.org/2000/svg">
<path d="M2.07551 6.31245C1.50851 8.29941 1.34508 10.4045 1.49826 12.4757C1.67248 14.8314 4.52226 15.2644 5.94975 16.7171C6.8634 17.6469 7.4932 18.8475 7.91462 20.083C8.21588 20.9662 8.39757 22.0124 9.11353 22.6643C9.75981 23.2527 10.7812 23.5428 11.5502 23.0395C12.8085 22.216 12.648 20.3274 12.3439 19.0482C12.0344 17.7463 11.5708 16.4127 10.9119 15.2502C10.7893 15.034 10.6319 14.6792 10.4567 14.4997C10.4426 14.4853 10.2264 14.3424 10.3679 14.3178C11.0005 14.2078 11.7312 14.3594 12.3661 14.3747C13.506 14.4021 14.662 14.4092 15.5021 13.5104C15.9341 13.0483 16.5041 12.2176 16.2959 11.5318C16.0008 10.5604 14.7336 10.2225 13.898 10.0138C13.6159 9.94328 13.2972 9.91318 13.0211 9.81479C12.6785 9.69275 13.7392 9.91888 14.0979 9.97398C14.8694 10.0925 15.7779 10.2675 16.2959 9.50776C17.1663 8.23107 13.9528 6.66528 13.01 7.05158C12.7953 7.13953 13.4625 7.15494 13.6927 7.17666C14.2136 7.22581 14.7571 7.26588 15.2801 7.22215C15.8194 7.17705 16.1954 6.70981 16.3181 6.18736C16.5038 5.39627 16.0064 5.06828 15.3412 4.7887C14.6353 4.49205 12.3474 4.29352 13.1099 4.26562C13.7497 4.24222 16.5592 4.58605 16.3403 3.1285C16.1055 1.56533 13.012 1.44291 11.9665 1.40007C9.96965 1.31825 7.98146 1.29773 5.98305 1.29773C3.07541 1.29773 2.63609 4.01554 2.07551 6.31245Z" stroke="#F1937D" stroke-width="2" stroke-linecap="round"/>
</svg>
