<svg width="28" height="24" viewBox="0 0 28 24" fill="none" xmlns="http://www.w3.org/2000/svg">
<g clip-path="url(#clip0_30_1454)">
<path d="M9.83905 3.96224C7.30678 4.07544 4.30598 3.90563 2.28686 5.7396C0.71395 7.17733 0.301201 9.31695 0.189647 11.366C0.0669379 13.6188 -0.256568 16.3019 0.356978 18.4868C1.05977 21.0113 3.26853 22.3471 5.63347 23.0037C8.73467 23.8641 12.0143 23.8415 15.2048 23.932C16.6996 23.9773 18.1944 24.0113 19.6781 24C21.1618 23.9887 22.7012 24.0226 24.0956 23.5132C26.6614 22.5736 27.498 19.8792 27.7881 17.366C28.1339 14.4453 28.0893 11.0603 27.3642 8.1962C27.0183 6.83771 26.4048 5.45658 25.2223 4.64148C24.0398 3.82639 22.3889 3.70186 20.9498 3.62261C17.2685 3.41884 13.5203 3.79243 9.83905 3.96224C8.23267 4.03016 8.22152 6.57733 9.83905 6.50941C12.3602 6.3962 14.8813 6.27167 17.4024 6.16978C18.5849 6.1245 19.7673 6.10186 20.9498 6.16978C21.9538 6.22639 23.3482 6.20375 24.1068 6.9962C24.8653 7.78865 25.0996 9.33959 25.2223 10.4037C25.3673 11.649 25.3896 12.9056 25.412 14.1622C25.4454 16.1094 25.5904 19.3132 23.9618 20.7056C23.1809 21.3736 22.0653 21.3962 21.0948 21.4302C19.8343 21.4754 18.5849 21.4641 17.3243 21.4415C14.8701 21.3962 12.4048 21.3849 9.96176 21.1698C7.93148 21 5.14264 20.7396 3.59204 19.2113C2.13068 17.7509 2.63268 15.2717 2.65499 13.3924C2.6773 11.7396 2.52112 9.73582 3.42471 8.27544C4.68526 6.24903 7.79762 6.59997 9.82789 6.50941C11.4343 6.44148 11.4454 3.89431 9.82789 3.96224H9.83905Z" fill="#666666"/>
<path d="M7.1395 1.33587C6.57057 3.70191 7.11719 6.07927 7.71958 8.37738C7.88691 9.02267 8.62316 9.47549 9.25902 9.27172C9.89488 9.06795 10.3188 8.40002 10.1403 7.70946C9.87257 6.70191 9.61599 5.68304 9.45982 4.65285C9.50444 4.92455 9.44866 4.53965 9.44866 4.517C9.43751 4.4038 9.42635 4.27927 9.41519 4.16606C9.39288 3.89436 9.38173 3.61134 9.39288 3.33965C9.39288 3.10191 9.4152 2.86417 9.43751 2.63776C9.47097 2.3321 9.40404 2.78493 9.45982 2.51323C9.49328 2.35474 9.52675 2.20757 9.56021 2.04908C9.71639 1.4038 9.35942 0.633986 8.67894 0.486816C7.99846 0.339646 7.29567 0.679269 7.1395 1.38116V1.33587Z" fill="#666666"/>
<path d="M16.4988 1.27924C16.5881 3.30566 16.7443 5.33207 16.9897 7.34716C17.0678 8.00377 17.514 8.64905 18.2391 8.61509C18.8526 8.59245 19.5777 8.04905 19.4885 7.34716C19.2431 5.33207 19.0869 3.30566 18.9977 1.27924C18.9753 0.611316 18.4399 -0.0226467 17.7482 0.0113155C17.0901 0.0452778 16.4654 0.577353 16.4988 1.27924Z" fill="#666666"/>
<path d="M1.40553 13.5397C9.18083 13.4264 16.9338 12.8604 24.6422 11.8642C26.2262 11.6604 26.2374 9.11324 24.6422 9.31701C16.9338 10.3132 9.18083 10.8793 1.40553 10.9925C-0.212 11.0151 -0.212 13.5623 1.40553 13.5397Z" fill="#666666"/>
<path d="M10.5195 17.9321H16.6326C17.2908 17.9321 17.9155 17.3434 17.882 16.6642C17.8486 15.9849 17.3354 15.3962 16.6326 15.3962H10.5195C9.86132 15.3962 9.23662 15.9849 9.27009 16.6642C9.30355 17.3434 9.8167 17.9321 10.5195 17.9321Z" fill="#666666"/>
</g>
<defs>
<clipPath id="clip0_30_1454">
<rect width="28" height="24" fill="white"/>
</clipPath>
</defs>
</svg>
