<svg width="21" height="21" viewBox="0 0 21 21" fill="none" xmlns="http://www.w3.org/2000/svg">
<path d="M5.83108 0.573969C2.63904 1.82108 0.142808 4.73391 0.290668 8.32698C0.438529 11.9201 3.17829 15.1294 6.74434 15.9666C10.3104 16.8038 14.3722 15.6003 16.4422 12.4869C18.3992 9.55665 17.9991 5.45776 15.7377 2.83272C13.3546 0.068148 9.16228 -0.646978 5.83108 0.573969C5.17006 0.818159 4.72648 1.46352 4.91782 2.18736C5.09178 2.824 5.85717 3.34726 6.52689 3.10307C8.65782 2.3269 11.1367 2.45772 12.998 3.84436C14.8593 5.23101 15.5551 7.88221 14.7549 10.0886C13.8503 12.5829 11.0671 13.7515 8.57084 13.6207C6.07461 13.4898 3.68276 11.8241 3.04783 9.27758C2.4129 6.73103 4.08285 4.06239 6.52689 3.1118C7.17922 2.85888 7.64019 2.23097 7.44015 1.4984C7.26619 0.870485 6.4921 0.32978 5.83108 0.58269V0.573969Z" fill="black"/>
<path d="M13.0761 13.8125C14.5982 15.9927 16.2595 18.077 18.0686 20.0306C18.5383 20.5364 19.4515 20.5364 19.9125 20.0306C20.4083 19.4899 20.4083 18.7137 19.9125 18.1817C19.0601 17.2573 18.2338 16.3154 17.451 15.3299C17.2684 15.1032 17.0857 14.8677 16.9031 14.6322C16.8857 14.6061 16.6943 14.3619 16.7987 14.5014C16.8944 14.6235 16.7465 14.4316 16.7291 14.4142C16.6422 14.3008 16.5465 14.1787 16.4595 14.0566C16.0681 13.5421 15.6941 13.0101 15.3288 12.4869C14.9374 11.9287 14.172 11.6148 13.5458 12.0159C12.9891 12.3735 12.6586 13.202 13.0761 13.8037V13.8125Z" fill="black"/>
</svg>
