<svg width="24" height="23" viewBox="0 0 24 23" fill="none" xmlns="http://www.w3.org/2000/svg">
<path d="M11.9152 1.32145C11.3725 1.31265 10.892 1.67353 10.5005 1.99921C7.25289 4.72783 4.22773 7.72052 1.46949 10.9421C1.38051 11.0477 1.29154 11.1709 1.32713 11.3029C1.36272 11.4174 1.49618 11.479 1.61185 11.5142C2.61727 11.8575 3.65828 12.0951 4.71709 12.2183C4.93953 14.9646 5.08189 17.7108 5.11748 20.457C7.11943 20.9147 12.0843 20.7123 12.0843 20.7123C12.0843 20.7123 16.8622 20.9147 18.8642 20.457C18.9087 17.702 19.0421 14.9558 19.2646 12.2183C20.3234 12.0951 21.3644 11.8575 22.3698 11.5142C22.4855 11.4702 22.619 11.4174 22.6545 11.3029C22.6901 11.1709 22.6012 11.0477 22.5122 10.9421C19.745 7.72052 16.7288 4.72783 13.4812 1.99921C13.0897 1.66473 12.6092 1.31265 12.0665 1.32145H11.9063H11.9152Z" fill="black"/>
<path d="M11.9153 0.00134352C10.0024 0.212592 8.58765 1.86737 7.23523 3.09965C5.81162 4.40235 4.4325 5.74906 3.10676 7.14858C2.39496 7.89675 1.70985 8.65373 1.03364 9.4283C0.562067 9.97403 -0.034069 10.5198 0.00152116 11.3031C0.0904966 13.2132 3.3381 13.3628 4.72612 13.5476L3.39149 12.2273C3.61393 14.9736 3.74739 17.7198 3.79188 20.466C3.80077 21.0206 4.20116 21.6191 4.77061 21.7423C7.17294 22.2528 9.64646 22.0504 12.0844 22.0504C14.5223 22.0504 16.8802 22.2352 19.2291 21.7423C19.8075 21.6191 20.199 21.0206 20.2078 20.466C20.2523 17.711 20.3947 14.9648 20.6082 12.2273L19.2736 13.5476C20.6616 13.3628 23.9092 13.2132 23.9982 11.3031C24.0427 10.4141 23.2508 9.75398 22.7081 9.13784C22.0229 8.37206 21.3289 7.61509 20.6171 6.86692C19.1935 5.37937 17.7165 3.95345 16.1773 2.58033C14.9672 1.49769 13.6682 0.00134352 11.9064 0.00134352C10.1447 0.00134352 10.1892 2.64195 11.9064 2.64195C12.636 2.64195 13.4813 3.7422 13.9974 4.1911C14.9138 5.00089 15.8125 5.82828 16.6844 6.68207C17.5119 7.49186 18.3305 8.31045 19.1223 9.15544C19.5227 9.57794 19.9142 10.0004 20.2968 10.4317C20.4659 10.6254 20.6438 10.8102 20.8129 11.0039C20.9463 11.1623 21.4001 11.9193 21.32 11.3031L21.7115 10.3701C21.6048 10.5021 20.8752 10.5814 20.6794 10.6342C20.2167 10.7486 19.7452 10.8454 19.2647 10.907C18.4995 11.0039 17.9924 11.4352 17.9301 12.2273C17.7076 14.9736 17.5742 17.7198 17.5297 20.466L18.5084 19.1897C16.4086 19.6298 14.202 19.401 12.0755 19.401C9.94898 19.401 7.61782 19.6386 5.47351 19.1897L6.45224 20.466C6.40775 17.711 6.26539 14.9648 6.05185 12.2273C5.98957 11.444 5.48241 11.0127 4.71722 10.907C4.24565 10.8454 3.77408 10.7486 3.30251 10.6342C3.09787 10.5814 2.37717 10.5021 2.2704 10.3701L2.66189 11.3031C2.6085 11.7344 2.71527 11.4704 2.91992 11.3031C3.15125 11.1007 3.3559 10.8102 3.56054 10.5814C3.90754 10.2029 4.25455 9.81559 4.60155 9.44591C5.39343 8.60091 6.20311 7.77352 7.02169 6.96374C7.80467 6.19796 8.59655 5.44979 9.40623 4.71922C9.78882 4.37595 10.1714 4.03267 10.5629 3.69819C10.8654 3.43413 11.4794 2.70356 11.9153 2.65075C13.6059 2.4571 13.6237 -0.1835 11.9153 0.0101441V0.00134352Z" fill="black"/>
<path d="M15.2785 19.4454L15.2341 15.6606C15.2252 14.8948 15.2074 14.1114 14.7714 13.4073C14.3354 12.7031 13.3656 12.1134 12.2534 12.1222C12.1199 12.1222 11.8619 12.1222 11.7373 12.1222C10.6251 12.1134 9.6553 12.7031 9.21932 13.4073C8.78334 14.1114 8.76554 14.8948 8.75665 15.6606L8.71216 19.4454" fill="white"/>
</svg>
