<svg width="20" height="20" viewBox="0 0 20 20" fill="none" xmlns="http://www.w3.org/2000/svg">
<path d="M14 6.66699C15.3807 6.66699 16.5 5.5477 16.5 4.16699C16.5 2.78628 15.3807 1.66699 14 1.66699C12.6193 1.66699 11.5 2.78628 11.5 4.16699C11.5 5.5477 12.6193 6.66699 14 6.66699Z" stroke="#666666" stroke-width="2" stroke-linecap="round" stroke-linejoin="round"/>
<path d="M4 12.5C5.38071 12.5 6.5 11.3807 6.5 10C6.5 8.61929 5.38071 7.5 4 7.5C2.61929 7.5 1.5 8.61929 1.5 10C1.5 11.3807 2.61929 12.5 4 12.5Z" stroke="#666666" stroke-width="2" stroke-linecap="round" stroke-linejoin="round"/>
<path d="M14 18.333C15.3807 18.333 16.5 17.2137 16.5 15.833C16.5 14.4523 15.3807 13.333 14 13.333C12.6193 13.333 11.5 14.4523 11.5 15.833C11.5 17.2137 12.6193 18.333 14 18.333Z" stroke="#666666" stroke-width="2" stroke-linecap="round" stroke-linejoin="round"/>
<path d="M6.15833 11.2578L11.85 14.5745" stroke="#666666" stroke-width="2" stroke-linecap="round" stroke-linejoin="round"/>
<path d="M11.8417 5.4248L6.15833 8.74147" stroke="#666666" stroke-width="2" stroke-linecap="round" stroke-linejoin="round"/>
</svg>
