<svg width="20" height="21" viewBox="0 0 20 21" fill="none" xmlns="http://www.w3.org/2000/svg">
<path d="M5.52066 0.571153C2.33865 1.81461 -0.140551 4.72631 0.00619288 8.28677C0.152936 11.8472 2.89472 15.0524 6.44746 15.8943C10.0002 16.7361 14.0627 15.5313 16.1248 12.4342C18.0711 9.51478 17.6849 5.44458 15.4297 2.82637C13.0509 0.061412 8.85715 -0.641412 5.52066 0.571153C4.13046 1.08089 4.73288 3.32066 6.13853 2.8032C8.3474 1.99997 10.9193 2.13899 12.8501 3.56781C14.7809 4.99663 15.5378 7.78476 14.7114 10.1095C13.7846 12.72 10.8652 13.9634 8.25472 13.8244C5.64423 13.6854 3.14187 11.9476 2.46994 9.28308C1.79801 6.61853 3.55121 3.80723 6.1308 2.8032C6.71005 2.57922 7.11939 2.02314 6.94176 1.37438C6.78729 0.8183 6.09991 0.339452 5.51294 0.563429L5.52066 0.571153Z" fill="#ACACAC"/>
<path d="M12.9814 13.7854C14.5184 15.9943 16.202 18.0951 18.0325 20.0722C18.4418 20.5202 19.2605 20.5202 19.6698 20.0722C20.1101 19.5934 20.1101 18.906 19.6698 18.4349C18.8048 17.5004 17.963 16.535 17.1597 15.5386C16.9744 15.3069 16.7813 15.0675 16.5959 14.8358L16.5264 14.7431C16.5805 14.8126 16.5805 14.8204 16.5341 14.7509C16.4878 14.6891 16.4415 14.635 16.3951 14.5732C16.3024 14.4574 16.2098 14.3338 16.1248 14.2102C15.7309 13.685 15.3447 13.1521 14.974 12.6115C14.6265 12.1172 13.9468 11.8392 13.3907 12.1944C12.8964 12.5111 12.603 13.2448 12.9737 13.7777L12.9814 13.7854Z" fill="#ACACAC"/>
</svg>
