<svg width="22" height="22" viewBox="0 0 22 22" fill="none" xmlns="http://www.w3.org/2000/svg">
<rect x="1" y="1" width="20" height="20" rx="10" stroke="#686868" stroke-width="2"/>
<path d="M8.34485 7.79173C8.34485 7.62876 8.4251 7.44541 8.4929 7.30077C8.62027 7.02905 8.82272 6.79302 9.07857 6.63127C9.50483 6.3618 9.96988 6.19487 10.472 6.14466C11.0655 6.08531 11.6431 6.00742 12.2312 6.15011C12.729 6.2709 13.1202 6.53008 13.4733 6.89689C13.7431 7.17727 13.8622 7.4671 13.9139 7.86699C14.0015 8.54334 13.8198 9.20837 13.224 9.50628C12.7178 9.75936 12.1519 9.86985 11.6825 10.1932C11.4525 10.3517 11.2164 10.478 11.0381 10.6983C10.8896 10.8817 10.8444 11.1011 10.7757 11.3188C10.6767 11.6322 10.688 11.9732 10.7158 12.2964C10.7382 12.5561 10.7158 12.7915 10.7158 13.0514" stroke="#686868" stroke-width="2" stroke-linecap="round"/>
<circle cx="10.8103" cy="16.1211" r="0.948276" fill="#686868"/>
</svg>
