<svg width="17" height="25" viewBox="0 0 17 25" fill="none" xmlns="http://www.w3.org/2000/svg">
<path d="M1.63166 18.9853C1.06466 16.9983 0.901231 14.8932 1.05441 12.8221C1.22863 10.4664 4.07841 10.0333 5.5059 8.5806C6.41955 7.65079 7.04935 6.45021 7.47077 5.21472C7.77203 4.33149 7.95372 3.28534 8.66968 2.63345C9.31596 2.04499 10.3373 1.75492 11.1063 2.25819C12.3647 3.0817 12.2041 4.97028 11.9001 6.2495C11.5906 7.55147 11.127 8.88498 10.468 10.0475C10.3455 10.2637 10.1881 10.6185 10.0129 10.798C9.9988 10.8124 9.78252 10.9553 9.92409 10.9799C10.5567 11.09 11.2874 10.9384 11.9223 10.9231C13.0622 10.8956 14.2182 10.8885 15.0583 11.7873C15.4902 12.2494 16.0603 13.0801 15.852 13.7659C15.557 14.7374 14.2897 15.0752 13.4542 15.2839C13.172 15.3544 12.8534 15.3846 12.5772 15.4829C12.2347 15.605 13.2954 15.3789 13.654 15.3237C14.4255 15.2052 15.334 15.0303 15.852 15.79C16.7225 17.0667 13.5089 18.6324 12.5661 18.2462C12.3515 18.1582 13.0186 18.1428 13.2488 18.1211C13.7698 18.0719 14.3133 18.0319 14.8363 18.0756C15.3755 18.1207 15.7515 18.5879 15.8742 19.1104C16.0599 19.9015 15.5626 20.2295 14.8973 20.509C14.1914 20.8057 11.9035 21.0042 12.666 21.0321C13.3058 21.0555 16.1153 20.7117 15.8964 22.1692C15.6616 23.7324 12.5682 23.8548 11.5226 23.8977C9.5258 23.9795 7.53761 24 5.5392 24C2.63156 24 2.19224 21.2822 1.63166 18.9853Z" stroke="#A4D879" stroke-width="2" stroke-linecap="round"/>
</svg>
