<svg width="24" height="21" viewBox="0 0 24 21" fill="none" xmlns="http://www.w3.org/2000/svg">
<path d="M11.5949 18.7845C8.57175 16.1733 3.58039 12.9963 1.99344 9.21006C1.31966 7.60851 1.16894 5.70231 1.96685 4.16169C4.50242 -0.756108 9.94593 1.25453 11.5949 5.71102H11.6393C13.2883 1.25453 18.7406 -0.756108 21.2674 4.16169C22.0653 5.71102 21.9145 7.60851 21.2407 9.21006C19.6538 12.9963 14.6004 16.1733 11.5861 18.7845H11.5949Z" fill="black"/>
<path d="M12.5346 17.8618C10.5753 16.1819 8.44757 14.6848 6.55032 12.9353C4.75946 11.2815 2.82675 9.21862 2.76469 6.65962C2.72036 4.75343 4.14773 2.42944 6.32868 2.60352C8.19933 2.7602 9.67989 4.42267 10.3182 6.05033C10.531 6.59869 10.9743 7.00778 11.6037 7.00778H11.6481C12.2775 7.00778 12.7208 6.58999 12.9336 6.05033C13.563 4.42267 15.0436 2.7602 16.9231 2.60352C19.1041 2.42074 20.5403 4.75343 20.4871 6.65962C20.425 9.22732 18.4835 11.2815 16.6749 12.9353C14.7599 14.6848 12.6233 16.1732 10.6551 17.8618C9.76855 18.6277 10.4955 20.09 11.5949 20.09C13.3059 20.09 13.3059 17.4788 11.5949 17.4788L12.5346 19.707C16.1961 16.5823 21.1786 13.7708 22.7478 8.9836C23.5989 6.3985 23.0315 3.51745 21.019 1.58514C19.5296 0.157676 17.3753 -0.373271 15.3894 0.270831C12.9513 1.0629 11.258 3.06484 10.3625 5.36271L11.6481 4.40526H11.6037L12.8893 5.36271C12.1179 3.37818 10.7526 1.55903 8.749 0.627698C6.89608 -0.234005 4.724 -0.234008 3.01293 0.95845C0.796519 2.50777 -0.187568 5.18863 0.220251 7.78244C0.628071 10.3763 2.25048 12.4304 4.05021 14.1973C6.09817 16.208 8.48303 17.8443 10.664 19.7157C11.9495 20.8124 13.8379 18.9759 12.5435 17.8705L12.5346 17.8618Z" fill="black"/>
</svg>
