<svg width="23" height="21" viewBox="0 0 23 21" fill="none" xmlns="http://www.w3.org/2000/svg">
<path d="M12.3127 18.0715C10.3539 16.396 8.24577 14.9093 6.33425 13.1787C4.42273 11.4481 2.41682 9.33205 2.33815 6.64176C2.27522 4.54145 3.91929 2.17369 6.21625 2.40181C8.13564 2.59847 9.66958 4.28186 10.3382 5.98886C10.527 6.47657 10.9203 6.85415 11.4788 6.85415H11.526C12.0924 6.85415 12.47 6.47657 12.6666 5.98886C13.3353 4.28186 14.8692 2.59847 16.7886 2.40181C19.0856 2.16582 20.7218 4.54145 20.6667 6.64176C20.588 9.34778 18.5349 11.4796 16.647 13.1787C14.7591 14.8778 12.6037 16.396 10.6371 18.0715C9.83477 18.7559 10.5034 20.0853 11.471 20.0853C12.9892 20.0853 12.9892 17.7254 11.471 17.7254L12.3048 19.7392C15.9784 16.6084 21.0679 13.7765 22.6333 8.90727C23.475 6.29564 22.8693 3.36937 20.8004 1.49718C19.2901 0.128443 17.1898 -0.327804 15.2547 0.340834C12.9026 1.15107 11.2664 3.09405 10.3775 5.35955L11.5182 4.49426H11.471L12.6116 5.35955C11.172 1.67811 6.7433 -1.71228 2.87306 0.954407C0.662625 2.48048 -0.328532 5.17076 0.0962503 7.77451C0.521032 10.3783 2.1887 12.4707 4.01369 14.2328C6.08253 16.2387 8.45816 17.8749 10.645 19.7392C11.7935 20.7225 13.469 19.0548 12.3127 18.0715Z" fill="#ACACAC"/>
</svg>
