<svg width="178" height="34" viewBox="0 0 178 34" fill="none" xmlns="http://www.w3.org/2000/svg">
<path d="M29.1741 31.908C28.6888 32.3933 27.9781 32.7573 27.0421 33C26.1408 33.2773 25.0488 33.416 23.7661 33.416C22.4834 33.416 21.2701 33.2253 20.1261 32.844C18.9821 32.4627 18.0461 31.544 17.3181 30.088L12.1701 19.584C11.6501 18.5093 11.1821 17.504 10.7661 16.568C10.3501 15.5973 9.89943 14.488 9.41409 13.24L9.10209 13.292C9.24076 15.164 9.31009 17.0707 9.31009 19.012C9.34476 20.9533 9.36209 22.86 9.36209 24.732V32.792C8.98076 32.896 8.39143 33 7.59409 33.104C6.83143 33.208 6.06876 33.26 5.30609 33.26C4.54343 33.26 3.86743 33.208 3.27809 33.104C2.68876 33 2.20343 32.792 1.82209 32.48C1.44076 32.168 1.14609 31.752 0.938094 31.232C0.730094 30.6773 0.626094 29.9667 0.626094 29.1V3.1C1.11143 2.40666 1.85676 1.88667 2.86209 1.54C3.86743 1.19333 4.94209 1.02 6.08609 1.02C7.36876 1.02 8.58209 1.228 9.72609 1.644C10.9048 2.02533 11.8408 2.92667 12.5341 4.348L17.7341 14.852C18.2541 15.9267 18.7221 16.9493 19.1381 17.92C19.5541 18.856 20.0048 19.948 20.4901 21.196L20.7501 21.144C20.6114 19.272 20.5248 17.4 20.4901 15.528C20.4554 13.656 20.4381 11.784 20.4381 9.912V1.488C20.8194 1.384 21.3914 1.28 22.1541 1.176C22.9514 1.072 23.7314 1.02 24.4941 1.02C26.0194 1.02 27.1808 1.29733 27.9781 1.852C28.7754 2.372 29.1741 3.48133 29.1741 5.18V31.908Z" fill="#F1937D"/>
<path d="M29.1591 17.192C29.1591 14.488 29.5751 12.096 30.4071 10.016C31.2737 7.936 32.4351 6.20266 33.8911 4.816C35.3817 3.39467 37.1151 2.32 39.0911 1.592C41.1017 0.863999 43.2684 0.5 45.5911 0.5C47.9137 0.5 50.0631 0.863999 52.0391 1.592C54.0497 2.32 55.8004 3.39467 57.2911 4.816C58.7817 6.20266 59.9431 7.936 60.7751 10.016C61.6417 12.096 62.0751 14.488 62.0751 17.192C62.0751 19.896 61.6591 22.3053 60.8271 24.42C59.9951 26.5 58.8337 28.2507 57.3431 29.672C55.8871 31.0587 54.1537 32.116 52.1431 32.844C50.1324 33.572 47.9484 33.936 45.5911 33.936C43.2337 33.936 41.0497 33.572 39.0391 32.844C37.0284 32.0813 35.2951 30.9893 33.8391 29.568C32.3831 28.1467 31.2391 26.396 30.4071 24.316C29.5751 22.236 29.1591 19.8613 29.1591 17.192ZM38.5191 17.192C38.5191 20.3467 39.1604 22.704 40.4431 24.264C41.7257 25.824 43.4417 26.604 45.5911 26.604C47.7751 26.604 49.5084 25.824 50.7911 24.264C52.0737 22.704 52.7151 20.3467 52.7151 17.192C52.7151 14.072 52.0737 11.732 50.7911 10.172C49.5431 8.612 47.8271 7.832 45.6431 7.832C43.4937 7.832 41.7604 8.612 40.4431 10.172C39.1604 11.6973 38.5191 14.0373 38.5191 17.192ZM84.2161 17.192C84.2161 14.488 84.6321 12.096 85.4641 10.016C86.3308 7.936 87.4921 6.20266 88.9481 4.816C90.4388 3.39467 92.1721 2.32 94.1481 1.592C96.1588 0.863999 98.3254 0.5 100.648 0.5C102.971 0.5 105.12 0.863999 107.096 1.592C109.107 2.32 110.857 3.39467 112.348 4.816C113.839 6.20266 115 7.936 115.832 10.016C116.699 12.096 117.132 14.488 117.132 17.192C117.132 19.896 116.716 22.3053 115.884 24.42C115.052 26.5 113.891 28.2507 112.4 29.672C110.944 31.0587 109.211 32.116 107.2 32.844C105.189 33.572 103.005 33.936 100.648 33.936C98.2908 33.936 96.1068 33.572 94.0961 32.844C92.0854 32.0813 90.3521 30.9893 88.8961 29.568C87.4401 28.1467 86.2961 26.396 85.4641 24.316C84.6321 22.236 84.2161 19.8613 84.2161 17.192ZM93.5761 17.192C93.5761 20.3467 94.2174 22.704 95.5001 24.264C96.7828 25.824 98.4988 26.604 100.648 26.604C102.832 26.604 104.565 25.824 105.848 24.264C107.131 22.704 107.772 20.3467 107.772 17.192C107.772 14.072 107.131 11.732 105.848 10.172C104.6 8.612 102.884 7.832 100.7 7.832C98.5508 7.832 96.8174 8.612 95.5001 10.172C94.2174 11.6973 93.5761 14.0373 93.5761 17.192ZM145.011 17.192C145.011 14.488 145.427 12.096 146.259 10.016C147.126 7.936 148.287 6.20266 149.743 4.816C151.234 3.39467 152.967 2.32 154.943 1.592C156.954 0.863999 159.121 0.5 161.443 0.5C163.766 0.5 165.915 0.863999 167.891 1.592C169.902 2.32 171.653 3.39467 173.143 4.816C174.634 6.20266 175.795 7.936 176.627 10.016C177.494 12.096 177.927 14.488 177.927 17.192C177.927 19.896 177.511 22.3053 176.679 24.42C175.847 26.5 174.686 28.2507 173.195 29.672C171.739 31.0587 170.006 32.116 167.995 32.844C165.985 33.572 163.801 33.936 161.443 33.936C159.086 33.936 156.902 33.572 154.891 32.844C152.881 32.0813 151.147 30.9893 149.691 29.568C148.235 28.1467 147.091 26.396 146.259 24.316C145.427 22.236 145.011 19.8613 145.011 17.192ZM154.371 17.192C154.371 20.3467 155.013 22.704 156.295 24.264C157.578 25.824 159.294 26.604 161.443 26.604C163.627 26.604 165.361 25.824 166.643 24.264C167.926 22.704 168.567 20.3467 168.567 17.192C168.567 14.072 167.926 11.732 166.643 10.172C165.395 8.612 163.679 7.832 161.495 7.832C159.346 7.832 157.613 8.612 156.295 10.172C155.013 11.6973 154.371 14.0373 154.371 17.192Z" fill="#B9B9B9"/>
<path d="M60.6256 8.768C60.3829 8.38667 60.1576 7.86667 59.9496 7.208C59.7416 6.54933 59.6376 5.856 59.6376 5.128C59.6376 3.776 59.9322 2.80533 60.5216 2.216C61.1456 1.62667 61.9429 1.332 62.9136 1.332H85.5856C85.8282 1.71333 86.0536 2.23333 86.2616 2.892C86.4696 3.55067 86.5736 4.244 86.5736 4.972C86.5736 6.324 86.2616 7.29467 85.6376 7.884C85.0482 8.47333 84.2682 8.768 83.2976 8.768H77.5256V32.792C77.1442 32.896 76.5376 33 75.7056 33.104C74.9082 33.208 74.1109 33.26 73.3136 33.26C72.5162 33.26 71.8056 33.1907 71.1816 33.052C70.5922 32.948 70.0896 32.74 69.6736 32.428C69.2576 32.116 68.9456 31.6827 68.7376 31.128C68.5296 30.5733 68.4256 29.8453 68.4256 28.944V8.768H60.6256Z" fill="#A4D879"/>
<path d="M126.187 26.24C126.568 26.3093 127.036 26.3787 127.591 26.448C128.145 26.4827 128.665 26.5 129.151 26.5C130.329 26.5 131.404 26.3267 132.375 25.98C133.38 25.6333 134.229 25.096 134.923 24.368C135.651 23.64 136.205 22.704 136.587 21.56C137.003 20.3813 137.211 18.9773 137.211 17.348C137.211 14.228 136.483 11.888 135.027 10.328C133.571 8.73333 131.629 7.936 129.203 7.936C128.717 7.936 128.215 7.95333 127.695 7.988C127.209 8.02267 126.707 8.07467 126.187 8.144V26.24ZM129.099 33.832C128.509 33.832 127.833 33.8147 127.071 33.78C126.308 33.7453 125.511 33.676 124.679 33.572C123.881 33.468 123.067 33.3293 122.235 33.156C121.437 33.0173 120.692 32.8093 119.999 32.532C118.092 31.804 117.139 30.5387 117.139 28.736V4.452C117.139 3.724 117.329 3.16933 117.711 2.788C118.127 2.372 118.681 2.04266 119.375 1.8C120.865 1.31467 122.443 1.00267 124.107 0.863998C125.771 0.690665 127.261 0.603999 128.579 0.603999C131.283 0.603999 133.727 0.933332 135.911 1.592C138.129 2.25066 140.019 3.27333 141.579 4.66C143.173 6.012 144.404 7.728 145.271 9.808C146.137 11.888 146.571 14.3493 146.571 17.192C146.571 19.9653 146.155 22.392 145.323 24.472C144.491 26.5173 143.295 28.2507 141.735 29.672C140.209 31.0587 138.372 32.0987 136.223 32.792C134.073 33.4853 131.699 33.832 129.099 33.832Z" fill="#FFD400"/>
</svg>
