<svg width="159" height="29" viewBox="0 0 159 29" fill="none" xmlns="http://www.w3.org/2000/svg">
<path d="M2.11055 27.892C2.11055 26.812 2.12255 25.504 2.14655 23.968C2.17055 22.408 2.19455 20.74 2.21855 18.964C2.26655 17.164 2.31455 15.352 2.36255 13.528C2.41055 11.68 2.45855 9.92796 2.50655 8.27196C2.57855 6.59196 2.63855 5.11596 2.68655 3.84396C2.73455 2.54796 2.78255 1.56396 2.83055 0.891962C3.45455 0.843961 4.33055 0.807961 5.45855 0.783961C6.61055 0.759962 8.03855 0.747962 9.74255 0.747962C11.7105 3.65196 13.7625 6.74796 15.8985 10.036C18.0585 13.3 20.2545 16.792 22.4865 20.512L21.6945 0.711963C22.3185 0.711963 22.9905 0.735962 23.7105 0.783961C24.4545 0.807961 25.1745 0.843961 25.8705 0.891962C25.8705 2.90796 25.8585 5.06796 25.8345 7.37196C25.8105 9.65196 25.7865 11.92 25.7625 14.176C25.7385 16.432 25.7025 18.532 25.6545 20.476C25.6065 22.396 25.5585 24.016 25.5105 25.336C25.4865 26.656 25.4505 27.52 25.4025 27.928C24.8985 27.952 24.2145 27.976 23.3505 28C22.5105 28.024 21.6585 28.036 20.7945 28.036C19.9305 28.06 19.2225 28.072 18.6705 28.072C16.7745 24.976 14.6625 21.712 12.3345 18.28C10.0305 14.848 7.70255 11.44 5.35055 8.05596L6.28655 28.108C4.94255 28.108 3.55055 28.036 2.11055 27.892Z" fill="black"/>
<path d="M41.3421 28.18C39.4701 28.18 37.7421 27.844 36.1581 27.172C34.5981 26.476 33.2301 25.504 32.0541 24.256C30.9021 23.008 30.0021 21.544 29.3541 19.864C28.7061 18.16 28.3821 16.312 28.3821 14.32C28.3821 12.328 28.7061 10.492 29.3541 8.81196C30.0021 7.10796 30.9021 5.63196 32.0541 4.38396C33.2301 3.13596 34.5981 2.17596 36.1581 1.50396C37.7421 0.807961 39.4701 0.459961 41.3421 0.459961C43.2141 0.459961 44.9421 0.807961 46.5261 1.50396C48.1101 2.17596 49.4781 3.13596 50.6301 4.38396C51.8061 5.63196 52.7061 7.10796 53.3301 8.81196C53.9781 10.492 54.3021 12.328 54.3021 14.32C54.3021 16.312 53.9781 18.16 53.3301 19.864C52.7061 21.544 51.8061 23.008 50.6301 24.256C49.4781 25.504 48.1101 26.476 46.5261 27.172C44.9421 27.844 43.2141 28.18 41.3421 28.18ZM42.0981 25.156C43.2741 25.156 44.2941 24.76 45.1581 23.968C46.0221 23.176 46.6941 22.06 47.1741 20.62C47.6541 19.18 47.8941 17.5 47.8941 15.58C47.8941 13.3 47.5701 11.248 46.9221 9.42396C46.2741 7.59996 45.3981 6.15996 44.2941 5.10396C43.1901 4.02396 41.9541 3.48396 40.5861 3.48396C39.4341 3.48396 38.4141 3.87996 37.5261 4.67196C36.6621 5.46396 35.9901 6.57996 35.5101 8.01996C35.0301 9.45996 34.7901 11.14 34.7901 13.06C34.7901 15.316 35.1141 17.368 35.7621 19.216C36.4101 21.04 37.2861 22.492 38.3901 23.572C39.4941 24.628 40.7301 25.156 42.0981 25.156Z" fill="black"/>
<path d="M70.3651 28.072C69.7651 28.072 69.0211 28.06 68.1331 28.036C67.2691 28.036 66.3811 28.024 65.4691 28C64.5811 27.976 63.8011 27.952 63.1291 27.928C63.1291 26.848 63.1291 25.528 63.1291 23.968C63.1531 22.384 63.1651 20.692 63.1651 18.892C63.1891 17.068 63.2011 15.256 63.2011 13.456C63.2251 11.632 63.2491 9.92796 63.2731 8.34396C63.2971 6.73596 63.3211 5.36796 63.3451 4.23996C61.5451 4.26396 59.7931 4.28796 58.0891 4.31196C56.3851 4.31196 54.8251 4.31196 53.4091 4.31196L53.5531 0.711963C55.0891 0.711963 56.7451 0.723962 58.5211 0.747962C60.2971 0.747962 62.1091 0.759962 63.9571 0.783961C65.8051 0.783961 67.5931 0.795961 69.3211 0.819961C71.0731 0.819961 72.6811 0.831962 74.1451 0.855963C75.6091 0.855963 76.8451 0.867962 77.8531 0.891962C78.8851 0.891962 79.5811 0.903962 79.9411 0.927961L80.0491 3.95196C78.7291 3.99996 77.2171 4.04796 75.5131 4.09596C73.8091 4.11996 72.0211 4.14396 70.1491 4.16796C70.1731 5.24796 70.1971 6.54396 70.2211 8.05596C70.2451 9.56796 70.2571 11.212 70.2571 12.988C70.2811 14.74 70.2931 16.516 70.2931 18.316C70.3171 20.116 70.3291 21.856 70.3291 23.536C70.3531 25.216 70.3651 26.728 70.3651 28.072Z" fill="black"/>
<path d="M92.1077 28.18C90.2357 28.18 88.5077 27.844 86.9237 27.172C85.3637 26.476 83.9957 25.504 82.8197 24.256C81.6677 23.008 80.7677 21.544 80.1197 19.864C79.4717 18.16 79.1477 16.312 79.1477 14.32C79.1477 12.328 79.4717 10.492 80.1197 8.81196C80.7677 7.10796 81.6677 5.63196 82.8197 4.38396C83.9957 3.13596 85.3637 2.17596 86.9237 1.50396C88.5077 0.807961 90.2357 0.459961 92.1077 0.459961C93.9797 0.459961 95.7077 0.807961 97.2917 1.50396C98.8757 2.17596 100.244 3.13596 101.396 4.38396C102.572 5.63196 103.472 7.10796 104.096 8.81196C104.744 10.492 105.068 12.328 105.068 14.32C105.068 16.312 104.744 18.16 104.096 19.864C103.472 21.544 102.572 23.008 101.396 24.256C100.244 25.504 98.8757 26.476 97.2917 27.172C95.7077 27.844 93.9797 28.18 92.1077 28.18ZM92.8637 25.156C94.0397 25.156 95.0597 24.76 95.9237 23.968C96.7877 23.176 97.4597 22.06 97.9397 20.62C98.4197 19.18 98.6597 17.5 98.6597 15.58C98.6597 13.3 98.3357 11.248 97.6877 9.42396C97.0397 7.59996 96.1637 6.15996 95.0597 5.10396C93.9557 4.02396 92.7197 3.48396 91.3517 3.48396C90.1997 3.48396 89.1797 3.87996 88.2917 4.67196C87.4277 5.46396 86.7557 6.57996 86.2757 8.01996C85.7957 9.45996 85.5557 11.14 85.5557 13.06C85.5557 15.316 85.8797 17.368 86.5277 19.216C87.1757 21.04 88.0517 22.492 89.1557 23.572C90.2597 24.628 91.4957 25.156 92.8637 25.156Z" fill="black"/>
<path d="M111.971 28.18C111.275 28.18 110.543 28.156 109.775 28.108C109.031 28.084 108.299 28.048 107.579 28C107.579 25.384 107.579 22.756 107.579 20.116C107.603 17.476 107.615 14.944 107.615 12.52C107.639 10.096 107.663 7.88796 107.687 5.89596C107.735 3.87996 107.783 2.18796 107.831 0.819961C108.767 0.699961 109.679 0.615961 110.567 0.567962C111.455 0.495961 112.319 0.459961 113.159 0.459961C118.679 0.459961 122.843 1.59996 125.651 3.87996C128.483 6.13596 129.899 9.47196 129.899 13.888C129.899 18.544 128.351 22.096 125.255 24.544C122.183 26.968 117.755 28.18 111.971 28.18ZM113.951 25.192C116.231 25.192 118.067 24.868 119.459 24.22C120.875 23.548 121.907 22.492 122.555 21.052C123.203 19.612 123.527 17.704 123.527 15.328C123.527 11.56 122.759 8.70396 121.223 6.75996C119.711 4.81596 117.359 3.68796 114.167 3.37596C114.143 4.02396 114.119 5.00796 114.095 6.32796C114.071 7.62396 114.047 9.11196 114.023 10.792C114.023 12.448 114.011 14.164 113.987 15.94C113.987 17.716 113.975 19.42 113.951 21.052C113.951 22.66 113.951 24.04 113.951 25.192Z" fill="black"/>
<path d="M145.018 28.18C143.146 28.18 141.418 27.844 139.834 27.172C138.274 26.476 136.906 25.504 135.73 24.256C134.578 23.008 133.678 21.544 133.03 19.864C132.382 18.16 132.058 16.312 132.058 14.32C132.058 12.328 132.382 10.492 133.03 8.81196C133.678 7.10796 134.578 5.63196 135.73 4.38396C136.906 3.13596 138.274 2.17596 139.834 1.50396C141.418 0.807961 143.146 0.459961 145.018 0.459961C146.89 0.459961 148.618 0.807961 150.202 1.50396C151.786 2.17596 153.154 3.13596 154.306 4.38396C155.482 5.63196 156.382 7.10796 157.006 8.81196C157.654 10.492 157.978 12.328 157.978 14.32C157.978 16.312 157.654 18.16 157.006 19.864C156.382 21.544 155.482 23.008 154.306 24.256C153.154 25.504 151.786 26.476 150.202 27.172C148.618 27.844 146.89 28.18 145.018 28.18ZM145.774 25.156C146.95 25.156 147.97 24.76 148.834 23.968C149.698 23.176 150.37 22.06 150.85 20.62C151.33 19.18 151.57 17.5 151.57 15.58C151.57 13.3 151.246 11.248 150.598 9.42396C149.95 7.59996 149.074 6.15996 147.97 5.10396C146.866 4.02396 145.63 3.48396 144.262 3.48396C143.11 3.48396 142.09 3.87996 141.202 4.67196C140.338 5.46396 139.666 6.57996 139.186 8.01996C138.706 9.45996 138.466 11.14 138.466 13.06C138.466 15.316 138.79 17.368 139.438 19.216C140.086 21.04 140.962 22.492 142.066 23.572C143.17 24.628 144.406 25.156 145.774 25.156Z" fill="black"/>
<path d="M0.310547 16.048H158.698V17.848H0.310547V16.048Z" fill="black"/>
</svg>
